<svg width="100" height="102" viewBox="0 0 100 102" fill="none" xmlns="http://www.w3.org/2000/svg">
<path d="M14.5254 29.4262C-5.76216 49.334 4.68252 73.3981 10.3928 81.2684C35.8011 111.506 77.2699 99.5307 91.0342 77.011C94.4654 71.0992 107.289 38.4763 73.7542 20.7883L14.5254 29.4262Z" fill="#F93208"/>
<path d="M28.5499 28.2991L31.9934 21.913L52.4662 18.2817L60.4799 24.9183L28.5499 28.2991Z" fill="#F93208"/>
<path d="M28.4223 6.17618L34.8859 2.3689L39.7557 13.5249C42.4891 8.9681 49.6945 1.76565 57.7298 10.1603C54.3222 11.071 52.3128 12.9389 52.1516 16.2697C63.067 13.2645 74.7412 18.5852 76.3239 22.8219C68.4313 19.7127 56.3635 30.3008 46.2187 24.504C46.2252 35.3473 37.1253 36.4939 31.8749 36.8111C33.3718 33.2103 35.9044 29.6082 32.9372 26.0096C27.4468 31.8986 22.9379 33.6983 9.03092 29.3739C12.5452 28.1639 19.7286 21.1649 26.6511 21.1397C21.7682 19.3617 17.7934 19.6356 13.8122 20.0766C15.9145 17.2219 22.5682 9.12385 34.4428 13.9678L28.4223 6.17618Z" fill="#02902E"/>
</svg>
