<svg width="100" height="100" viewBox="0 0 100 100" fill="none" xmlns="http://www.w3.org/2000/svg">
<path d="M14.9984 0H85.0016C93.2861 0 100 6.71387 100 14.9984V85.0016C100 93.2861 93.2861 100 85.0016 100H14.9984C6.71387 100 0 93.2861 0 85.0016V14.9984C0 6.71387 6.71387 0 14.9984 0Z" fill="#F5C518"/>
<path d="M20.3125 64.0625V35.9375H12.5V64.0625H20.3125ZM36.9141 35.9375L35.1562 49.0234L34.1797 41.9922L33.2031 35.9375H23.4375V64.0625H30.0781V45.5078L32.8125 64.0625H37.6953L40.2344 45.1172V64.0625H46.875V35.9375H36.9141ZM50 64.0625V35.9375H62.1094C65.0391 35.9375 67.1875 38.0859 67.1875 40.8203V59.1797C67.1875 61.9141 65.0391 64.0625 62.1094 64.0625H50ZM59.1797 41.0156L57.4219 40.8203V59.1797C58.3984 59.1797 59.1797 58.9844 59.375 58.5938C59.7656 58.2031 59.7656 57.0313 59.7656 55.0781V41.7969L59.1797 41.0156ZM81.8359 42.9688H82.4219C85.1562 42.9688 87.5 45.1172 87.5 47.8516V59.1797C87.5 61.9141 85.1562 64.0625 82.4219 64.0625H81.8359C80.2734 64.0625 78.7109 63.2813 77.7344 61.9141L77.3438 63.6719H70.3125V35.9375H77.7344V44.9219C78.7109 43.75 80.2734 42.9688 81.8359 42.9688ZM80.2734 56.6406V50L80.0781 47.8516C79.8828 47.4609 79.2969 47.2656 78.9062 47.2656C78.5156 47.2656 77.9297 47.4609 77.7344 47.8516V58.9844C77.9297 59.375 78.5156 59.5703 78.9062 59.5703C79.2969 59.5703 80.0781 59.375 80.0781 58.9844L80.2734 56.6406Z" fill="black"/>
</svg>
