<svg width="97" height="16" viewBox="0 0 97 16" fill="none" xmlns="http://www.w3.org/2000/svg">
<path d="M0.884949 2.81813H3.53978L6.34376 9.65904H6.46307L9.26705 2.81813H11.9219V12.9999H9.83381V6.37281H9.7493L7.11435 12.9502H5.69248L3.05753 6.34796H2.97302V12.9999H0.884949V2.81813Z" fill="white"/>
<path d="M17.106 13.1491C16.3338 13.1491 15.6659 12.985 15.1025 12.6569C14.5423 12.3255 14.1098 11.8648 13.8049 11.2748C13.4999 10.6815 13.3475 9.99379 13.3475 9.21159C13.3475 8.42277 13.4999 7.73337 13.8049 7.14341C14.1098 6.55013 14.5423 6.08943 15.1025 5.76131C15.6659 5.42987 16.3338 5.26415 17.106 5.26415C17.8783 5.26415 18.5445 5.42987 19.1046 5.76131C19.668 6.08943 20.1022 6.55013 20.4071 7.14341C20.7121 7.73337 20.8645 8.42277 20.8645 9.21159C20.8645 9.99379 20.7121 10.6815 20.4071 11.2748C20.1022 11.8648 19.668 12.3255 19.1046 12.6569C18.5445 12.985 17.8783 13.1491 17.106 13.1491ZM17.1159 11.5085C17.4673 11.5085 17.7606 11.409 17.9959 11.2102C18.2312 11.008 18.4086 10.7329 18.5279 10.3849C18.6505 10.0369 18.7118 9.64081 18.7118 9.19668C18.7118 8.75255 18.6505 8.35648 18.5279 8.00847C18.4086 7.66046 18.2312 7.38536 17.9959 7.18318C17.7606 6.98101 17.4673 6.87992 17.1159 6.87992C16.7613 6.87992 16.463 6.98101 16.2211 7.18318C15.9824 7.38536 15.8018 7.66046 15.6792 8.00847C15.5598 8.35648 15.5002 8.75255 15.5002 9.19668C15.5002 9.64081 15.5598 10.0369 15.6792 10.3849C15.8018 10.7329 15.9824 11.008 16.2211 11.2102C16.463 11.409 16.7613 11.5085 17.1159 11.5085Z" fill="white"/>
<path d="M29.1149 5.36358L26.4451 12.9999H24.0588L21.389 5.36358H23.6262L25.2122 10.8274H25.2917L26.8727 5.36358H29.1149Z" fill="white"/>
<path d="M30.1987 12.9999V5.36358H32.3166V12.9999H30.1987ZM31.2626 4.37921C30.9477 4.37921 30.6776 4.2748 30.4522 4.066C30.2302 3.85387 30.1191 3.60032 30.1191 3.30534C30.1191 3.01368 30.2302 2.76344 30.4522 2.55463C30.6776 2.34251 30.9477 2.23645 31.2626 2.23645C31.5775 2.23645 31.8459 2.34251 32.068 2.55463C32.2934 2.76344 32.4061 3.01368 32.4061 3.30534C32.4061 3.60032 32.2934 3.85387 32.068 4.066C31.8459 4.2748 31.5775 4.37921 31.2626 4.37921Z" fill="white"/>
<path d="M37.4933 13.1491C36.7077 13.1491 36.0316 12.99 35.4648 12.6718C34.9014 12.3503 34.4672 11.8963 34.1623 11.3096C33.8574 10.7196 33.7049 10.022 33.7049 9.21656C33.7049 8.43105 33.8574 7.74166 34.1623 7.14838C34.4672 6.55511 34.8964 6.09275 35.4499 5.76131C36.0068 5.42987 36.6597 5.26415 37.4087 5.26415C37.9125 5.26415 38.3815 5.34535 38.8157 5.50776C39.2532 5.66685 39.6344 5.90714 39.9592 6.22864C40.2873 6.55013 40.5425 6.95449 40.7248 7.44171C40.9071 7.92561 40.9982 8.49237 40.9982 9.14199V9.72367H34.5501V8.41117H39.0046C39.0046 8.10624 38.9383 7.83612 38.8058 7.6008C38.6732 7.36547 38.4892 7.18153 38.2539 7.04895C38.0219 6.91306 37.7518 6.84512 37.4435 6.84512C37.122 6.84512 36.837 6.91969 36.5884 7.06884C36.3432 7.21467 36.1509 7.41188 36.0117 7.66046C35.8725 7.90572 35.8013 8.17916 35.7979 8.48077V9.72864C35.7979 10.1065 35.8675 10.4329 36.0068 10.708C36.1493 10.9831 36.3498 11.1953 36.6083 11.3444C36.8668 11.4936 37.1734 11.5681 37.5281 11.5681C37.7634 11.5681 37.9788 11.535 38.1744 11.4687C38.3699 11.4024 38.5373 11.303 38.6765 11.1704C38.8157 11.0378 38.9218 10.8754 38.9947 10.6832L40.9535 10.8124C40.8541 11.2831 40.6502 11.6941 40.342 12.0454C40.0371 12.3934 39.6426 12.6652 39.1587 12.8607C38.6782 13.053 38.123 13.1491 37.4933 13.1491Z" fill="white"/>
<path d="M47.9435 5.74639C47.9038 5.34535 47.7331 5.0338 47.4315 4.81173C47.1299 4.58967 46.7205 4.47864 46.2035 4.47864C45.8522 4.47864 45.5555 4.52835 45.3136 4.62779C45.0716 4.7239 44.886 4.85814 44.7568 5.03048C44.6308 5.20283 44.5678 5.39838 44.5678 5.61713C44.5612 5.79942 44.5993 5.95852 44.6822 6.09441C44.7684 6.2303 44.886 6.34796 45.0352 6.44739C45.1843 6.54351 45.3567 6.62802 45.5522 6.70094C45.7478 6.77054 45.9566 6.8302 46.1786 6.87992L47.0934 7.09867C47.5375 7.1981 47.9452 7.33067 48.3164 7.49639C48.6876 7.66211 49.0091 7.86595 49.2809 8.1079C49.5527 8.34985 49.7631 8.63489 49.9123 8.96301C50.0648 9.29114 50.1426 9.66732 50.146 10.0916C50.1426 10.7147 49.9836 11.2549 49.6687 11.7123C49.3571 12.1664 48.9064 12.5194 48.3164 12.7713C47.7298 13.0198 47.0221 13.1441 46.1935 13.1441C45.3716 13.1441 44.6557 13.0182 44.0458 12.7663C43.4393 12.5144 42.9653 12.1415 42.6239 11.6477C42.2859 11.1505 42.1086 10.5357 42.092 9.80321H44.1751C44.1983 10.1446 44.2961 10.4296 44.4684 10.6583C44.6441 10.8837 44.8777 11.0544 45.1694 11.1704C45.4644 11.2831 45.7975 11.3394 46.1687 11.3394C46.5333 11.3394 46.8498 11.2864 47.1183 11.1803C47.39 11.0743 47.6005 10.9268 47.7496 10.7379C47.8988 10.549 47.9734 10.3319 47.9734 10.0866C47.9734 9.8579 47.9054 9.66566 47.7695 9.50989C47.637 9.35411 47.4414 9.22154 47.1829 9.11216C46.9277 9.00279 46.6145 8.90335 46.2433 8.81387L45.1346 8.53546C44.2762 8.32665 43.5984 8.00018 43.1012 7.55605C42.6041 7.11192 42.3571 6.51368 42.3604 5.76131C42.3571 5.14483 42.5212 4.60624 42.8526 4.14554C43.1874 3.68484 43.6464 3.32523 44.2298 3.06671C44.8131 2.80818 45.476 2.67892 46.2184 2.67892C46.9741 2.67892 47.6336 2.80818 48.1971 3.06671C48.7639 3.32523 49.2047 3.68484 49.5195 4.14554C49.8344 4.60624 49.9968 5.13986 50.0068 5.74639H47.9435Z" fill="white"/>
<path d="M51.5542 15.8636V5.36358H53.6422V6.64625H53.7367C53.8295 6.44076 53.9637 6.23195 54.1394 6.01983C54.3184 5.8044 54.5504 5.62542 54.8354 5.4829C55.1238 5.33707 55.4817 5.26415 55.9093 5.26415C56.4661 5.26415 56.9798 5.40998 57.4505 5.70165C57.9211 5.99 58.2973 6.42584 58.579 7.00918C58.8607 7.5892 59.0016 8.31671 59.0016 9.19171C59.0016 10.0435 58.8641 10.7627 58.589 11.3494C58.3172 11.9327 57.946 12.3752 57.4753 12.6768C57.008 12.9751 56.4843 13.1242 55.9043 13.1242C55.4933 13.1242 55.1436 13.0563 54.8553 12.9204C54.5703 12.7845 54.3366 12.6138 54.1543 12.4083C53.972 12.1995 53.8328 11.9891 53.7367 11.7769H53.6721V15.8636H51.5542ZM53.6273 9.18176C53.6273 9.63584 53.6903 10.0319 53.8162 10.37C53.9422 10.708 54.1245 10.9715 54.3631 11.1605C54.6017 11.3461 54.8918 11.4389 55.2331 11.4389C55.5778 11.4389 55.8695 11.3444 56.1081 11.1555C56.3468 10.9633 56.5274 10.6981 56.65 10.36C56.776 10.0186 56.839 9.62589 56.839 9.18176C56.839 8.74095 56.7776 8.35316 56.655 8.01841C56.5324 7.68366 56.3517 7.42182 56.1131 7.2329C55.8745 7.04398 55.5812 6.94952 55.2331 6.94952C54.8884 6.94952 54.5968 7.04066 54.3581 7.22296C54.1228 7.40525 53.9422 7.66377 53.8162 7.99852C53.6903 8.33328 53.6273 8.72769 53.6273 9.18176Z" fill="white"/>
<path d="M62.5314 8.58517V12.9999H60.4135V2.81813H62.4718V6.71088H62.5613C62.7336 6.26012 63.012 5.90714 63.3965 5.65193C63.781 5.39341 64.2632 5.26415 64.8432 5.26415C65.3735 5.26415 65.8359 5.38015 66.2303 5.61216C66.628 5.84085 66.9363 6.17064 67.155 6.60151C67.3771 7.02906 67.4865 7.54114 67.4831 8.13773V12.9999H65.3652V8.51557C65.3686 8.04493 65.2492 7.67869 65.0073 7.41685C64.7686 7.15501 64.4339 7.02409 64.003 7.02409C63.7147 7.02409 63.4595 7.08541 63.2374 7.20804C63.0187 7.33067 62.8463 7.50965 62.7204 7.74497C62.5977 7.97698 62.5347 8.25705 62.5314 8.58517Z" fill="white"/>
<path d="M72.63 13.1491C71.8445 13.1491 71.1683 12.99 70.6016 12.6718C70.0381 12.3503 69.6039 11.8963 69.299 11.3096C68.9941 10.7196 68.8416 10.022 68.8416 9.21656C68.8416 8.43105 68.9941 7.74166 69.299 7.14838C69.6039 6.55511 70.0332 6.09275 70.5867 5.76131C71.1435 5.42987 71.7964 5.26415 72.5455 5.26415C73.0493 5.26415 73.5182 5.34535 73.9524 5.50776C74.3899 5.66685 74.7711 5.90714 75.0959 6.22864C75.424 6.55013 75.6792 6.95449 75.8615 7.44171C76.0438 7.92561 76.1349 8.49237 76.1349 9.14199V9.72367H69.6868V8.41117H74.1413C74.1413 8.10624 74.0751 7.83612 73.9425 7.6008C73.8099 7.36547 73.626 7.18153 73.3906 7.04895C73.1586 6.91306 72.8885 6.84512 72.5803 6.84512C72.2588 6.84512 71.9737 6.91969 71.7252 7.06884C71.4799 7.21467 71.2876 7.41188 71.1484 7.66046C71.0092 7.90572 70.938 8.17916 70.9347 8.48077V9.72864C70.9347 10.1065 71.0043 10.4329 71.1435 10.708C71.286 10.9831 71.4865 11.1953 71.745 11.3444C72.0036 11.4936 72.3101 11.5681 72.6648 11.5681C72.9001 11.5681 73.1155 11.535 73.3111 11.4687C73.5066 11.4024 73.674 11.303 73.8132 11.1704C73.9524 11.0378 74.0585 10.8754 74.1314 10.6832L76.0902 10.8124C75.9908 11.2831 75.7869 11.6941 75.4787 12.0454C75.1738 12.3934 74.7794 12.6652 74.2955 12.8607C73.8149 13.053 73.2597 13.1491 72.63 13.1491Z" fill="white"/>
<path d="M77.5171 12.9999V5.36358H79.5703V6.69597H79.6499C79.7891 6.22201 80.0227 5.86405 80.3509 5.6221C80.679 5.37684 81.0568 5.25421 81.4844 5.25421C81.5904 5.25421 81.7048 5.26083 81.8274 5.27409C81.9501 5.28735 82.0578 5.30558 82.1506 5.32878V7.20804C82.0511 7.17821 81.9136 7.1517 81.7379 7.1285C81.5623 7.1053 81.4015 7.0937 81.2557 7.0937C80.9441 7.0937 80.6657 7.16164 80.4205 7.29753C80.1785 7.43011 79.9863 7.61571 79.8438 7.85435C79.7046 8.09298 79.6349 8.36808 79.6349 8.67963V12.9999H77.5171Z" fill="white"/>
<path d="M86.3702 13.1491C85.5847 13.1491 84.9086 12.99 84.3418 12.6718C83.7784 12.3503 83.3442 11.8963 83.0392 11.3096C82.7343 10.7196 82.5819 10.022 82.5819 9.21656C82.5819 8.43105 82.7343 7.74166 83.0392 7.14838C83.3442 6.55511 83.7734 6.09275 84.3269 5.76131C84.8837 5.42987 85.5366 5.26415 86.2857 5.26415C86.7895 5.26415 87.2585 5.34535 87.6927 5.50776C88.1302 5.66685 88.5113 5.90714 88.8361 6.22864C89.1642 6.55013 89.4195 6.95449 89.6017 7.44171C89.784 7.92561 89.8752 8.49237 89.8752 9.14199V9.72367H83.427V8.41117H87.8816C87.8816 8.10624 87.8153 7.83612 87.6827 7.6008C87.5501 7.36547 87.3662 7.18153 87.1309 7.04895C86.8989 6.91306 86.6287 6.84512 86.3205 6.84512C85.999 6.84512 85.714 6.91969 85.4654 7.06884C85.2201 7.21467 85.0279 7.41188 84.8887 7.66046C84.7495 7.90572 84.6782 8.17916 84.6749 8.48077V9.72864C84.6749 10.1065 84.7445 10.4329 84.8837 10.708C85.0262 10.9831 85.2267 11.1953 85.4853 11.3444C85.7438 11.4936 86.0504 11.5681 86.405 11.5681C86.6403 11.5681 86.8558 11.535 87.0513 11.4687C87.2469 11.4024 87.4142 11.303 87.5535 11.1704C87.6927 11.0378 87.7987 10.8754 87.8716 10.6832L89.8304 10.8124C89.731 11.2831 89.5272 11.6941 89.2189 12.0454C88.914 12.3934 88.5196 12.6652 88.0357 12.8607C87.5551 13.053 86.9999 13.1491 86.3702 13.1491Z" fill="white"/>
<path d="M96.25 3C96.25 4.24264 95.2426 5.25 94 5.25C92.7574 5.25 91.75 4.24264 91.75 3C91.75 1.75736 92.7574 0.75 94 0.75C95.2426 0.75 96.25 1.75736 96.25 3Z" stroke="#9E0808" stroke-width="1.5"/>
</svg>
